<svg id="Layer_1" data-name="Layer 1" xmlns="http://www.w3.org/2000/svg" xmlns:xlink="http://www.w3.org/1999/xlink" viewBox="0 0 64.11 40.91"><defs><style>.cls-1{fill:url(#New_Gradient_Swatch_1);}.cls-2{fill:#fff;}</style><linearGradient id="New_Gradient_Swatch_1" x1="5.99" y1="34.92" x2="34.92" y2="5.99" gradientUnits="userSpaceOnUse"><stop offset="0" stop-color="#fdb728"/><stop offset="1" stop-color="#ffcd23"/></linearGradient></defs><g id="Haze"><circle class="cls-1" cx="20.46" cy="20.46" r="20.46"/><path class="cls-2" d="M297.05,357.2h-10a1.5,1.5,0,0,1,0-3h10a1.5,1.5,0,0,1,0,3Z" transform="translate(-265.95 -336.04)"/><path class="cls-2" d="M318.55,357.2h-15a1.5,1.5,0,0,1,0-3h15a1.5,1.5,0,0,1,0,3Z" transform="translate(-265.95 -336.04)"/><path class="cls-2" d="M297.05,371.7h-10a1.5,1.5,0,0,1,0-3h10a1.5,1.5,0,0,1,0,3Z" transform="translate(-265.95 -336.04)"/><path class="cls-2" d="M318.55,371.7h-15a1.5,1.5,0,0,1,0-3h15a1.5,1.5,0,0,1,0,3Z" transform="translate(-265.95 -336.04)"/><path class="cls-2" d="M307.05,364.7h-20a1.5,1.5,0,0,1,0-3h20a1.5,1.5,0,0,1,0,3Z" transform="translate(-265.95 -336.04)"/><path class="cls-2" d="M328.55,364.7h-15a1.5,1.5,0,0,1,0-3h15a1.5,1.5,0,0,1,0,3Z" transform="translate(-265.95 -336.04)"/></g></svg>