<svg id="Layer_1" data-name="Layer 1" xmlns="http://www.w3.org/2000/svg" xmlns:xlink="http://www.w3.org/1999/xlink" viewBox="0 0 67 45.11"><defs><style>.cls-1{fill:#fff;}.cls-2{fill:url(#New_Gradient_Swatch_copy_2);}.cls-3{fill:url(#New_Gradient_Swatch_copy);}.cls-4{fill:url(#New_Gradient_Swatch_copy_2-2);}</style><linearGradient id="New_Gradient_Swatch_copy_2" x1="303.29" y1="377.28" x2="323.61" y2="356.95" gradientUnits="userSpaceOnUse"><stop offset="0" stop-color="#d0e8f8"/><stop offset="1" stop-color="#e1eef9"/></linearGradient><linearGradient id="New_Gradient_Swatch_copy" x1="307.09" y1="358.35" x2="322.69" y2="342.75" gradientUnits="userSpaceOnUse"><stop offset="0" stop-color="#00aeef"/><stop offset="1" stop-color="#00bdf2"/></linearGradient><linearGradient id="New_Gradient_Swatch_copy_2-2" x1="276.28" y1="383.15" x2="308.65" y2="350.78" xlink:href="#New_Gradient_Swatch_copy_2"/></defs><g id="Mostly_Cloudy" data-name="Mostly Cloudy"><path class="cls-1" d="M310.54,374.72a10.67,10.67,0,1,0,0-21.33h-.1A17,17,0,0,0,278,348.33h-.25a13.2,13.2,0,1,0,0,26.4" transform="translate(-264.48 -333.97)"/><path class="cls-2" d="M324.76,374.72a6.7,6.7,0,1,0,0-13.39h-.07a10.69,10.69,0,0,0-20.37-3.18h-.16a8.29,8.29,0,0,0,0,16.58" transform="translate(-264.48 -333.97)"/></g><g id="Mostly_Cloudy_Night" data-name="Mostly Cloudy Night"><path class="cls-3" d="M317.42,362.64a14.6,14.6,0,0,1-4-28.64.76.76,0,0,1,.95.95,13.07,13.07,0,0,0,16.17,16.17.74.74,0,0,1,.75.19.77.77,0,0,1,.2.75A14.67,14.67,0,0,1,317.42,362.64Z" transform="translate(-264.48 -333.97)"/><path class="cls-4" d="M310.48,379.08a10.67,10.67,0,0,0,0-21.33h-.11a17,17,0,0,0-32.44-5.06h-.26a13.2,13.2,0,0,0,0,26.4" transform="translate(-264.48 -333.97)"/><path class="cls-1" d="M324.7,379.08a6.7,6.7,0,0,0,0-13.4h-.07a10.69,10.69,0,0,0-20.37-3.18h-.16a8.29,8.29,0,0,0,0,16.58" transform="translate(-264.48 -333.97)"/></g></svg>