<svg id="Layer_1" data-name="Layer 1" xmlns="http://www.w3.org/2000/svg" xmlns:xlink="http://www.w3.org/1999/xlink" viewBox="0 0 66.92 59.97"><defs><style>.cls-1{fill:#fff;}.cls-2{fill:url(#New_Gradient_Swatch_copy_2);}.cls-3{fill:url(#New_Gradient_Swatch_copy);}.cls-4{fill:url(#New_Gradient_Swatch_copy-2);}.cls-5{fill:url(#New_Gradient_Swatch_copy-3);}.cls-6{fill:url(#New_Gradient_Swatch_copy-4);}.cls-7{fill:url(#New_Gradient_Swatch_copy-5);}.cls-8{fill:url(#New_Gradient_Swatch_copy-6);}</style><linearGradient id="New_Gradient_Swatch_copy_2" x1="303.29" y1="365.51" x2="323.61" y2="345.19" gradientUnits="userSpaceOnUse"><stop offset="0" stop-color="#d0e8f8"/><stop offset="1" stop-color="#e1eef9"/></linearGradient><linearGradient id="New_Gradient_Swatch_copy" x1="272.18" y1="374.8" x2="279.07" y2="374.8" gradientUnits="userSpaceOnUse"><stop offset="0" stop-color="#00aeef"/><stop offset="1" stop-color="#00bdf2"/></linearGradient><linearGradient id="New_Gradient_Swatch_copy-2" x1="288.3" y1="374.8" x2="295.18" y2="374.8" xlink:href="#New_Gradient_Swatch_copy"/><linearGradient id="New_Gradient_Swatch_copy-3" x1="304.41" y1="374.8" x2="311.3" y2="374.8" xlink:href="#New_Gradient_Swatch_copy"/><linearGradient id="New_Gradient_Swatch_copy-4" x1="277.18" y1="381.98" x2="284.07" y2="381.98" xlink:href="#New_Gradient_Swatch_copy"/><linearGradient id="New_Gradient_Swatch_copy-5" x1="293.8" y1="381.98" x2="300.68" y2="381.98" xlink:href="#New_Gradient_Swatch_copy"/><linearGradient id="New_Gradient_Swatch_copy-6" x1="310.41" y1="381.98" x2="317.3" y2="381.98" xlink:href="#New_Gradient_Swatch_copy"/></defs><g id="Drizzle"><path class="cls-1" d="M310.54,363a10.67,10.67,0,1,0,0-21.33h-.1A17,17,0,0,0,278,336.57h-.25a13.2,13.2,0,0,0,0,26.4" transform="translate(-264.54 -326.52)"/><path class="cls-2" d="M324.76,363a6.7,6.7,0,0,0,0-13.4h-.07a10.69,10.69,0,0,0-20.37-3.19h-.16a8.29,8.29,0,0,0,0,16.58" transform="translate(-264.54 -326.52)"/><path class="cls-3" d="M274.18,379.3a1.87,1.87,0,0,1-1-.27,2,2,0,0,1-.74-2.73l2.89-5a2,2,0,1,1,3.46,2l-2.88,5A2,2,0,0,1,274.18,379.3Z" transform="translate(-264.54 -326.52)"/><path class="cls-4" d="M290.3,379.3a1.91,1.91,0,0,1-1-.27,2,2,0,0,1-.74-2.73l2.89-5a2,2,0,0,1,3.47,2l-2.89,5A2,2,0,0,1,290.3,379.3Z" transform="translate(-264.54 -326.52)"/><path class="cls-5" d="M306.41,379.3a1.91,1.91,0,0,1-1-.27,2,2,0,0,1-.73-2.73l2.88-5a2,2,0,0,1,3.47,2l-2.89,5A2,2,0,0,1,306.41,379.3Z" transform="translate(-264.54 -326.52)"/><path class="cls-6" d="M279.18,386.48a1.87,1.87,0,0,1-1-.27,2,2,0,0,1-.74-2.73l2.89-5a2,2,0,1,1,3.46,2l-2.88,5A2,2,0,0,1,279.18,386.48Z" transform="translate(-264.54 -326.52)"/><path class="cls-7" d="M295.8,386.48a1.91,1.91,0,0,1-1-.27,2,2,0,0,1-.73-2.73l2.88-5a2,2,0,0,1,3.47,2l-2.89,5A2,2,0,0,1,295.8,386.48Z" transform="translate(-264.54 -326.52)"/><path class="cls-8" d="M312.41,386.48a1.91,1.91,0,0,1-1-.27,2,2,0,0,1-.73-2.73l2.88-5a2,2,0,0,1,3.47,2l-2.89,5A2,2,0,0,1,312.41,386.48Z" transform="translate(-264.54 -326.52)"/></g></svg>