<svg id="Layer_1" data-name="Layer 1" xmlns="http://www.w3.org/2000/svg" xmlns:xlink="http://www.w3.org/1999/xlink" viewBox="0 0 68.06 73.54"><defs><style>.cls-1{fill:url(#New_Gradient_Swatch_copy);}.cls-2{fill:url(#New_Gradient_Swatch_copy_2);}.cls-3{fill:#fff;}.cls-4{fill:url(#New_Gradient_Swatch_copy_2-2);}.cls-5{fill:url(#New_Gradient_Swatch_copy_2-3);}.cls-6{fill:url(#New_Gradient_Swatch_copy_2-4);}.cls-7{fill:url(#New_Gradient_Swatch_copy_2-5);}.cls-8{fill:url(#New_Gradient_Swatch_copy_2-6);}.cls-9{fill:url(#New_Gradient_Swatch_copy_2-7);}.cls-10{fill:url(#New_Gradient_Swatch_copy_2-8);}.cls-11{fill:url(#New_Gradient_Swatch_copy_2-9);}.cls-12{fill:url(#New_Gradient_Swatch_copy_2-10);}.cls-13{fill:url(#New_Gradient_Swatch_copy_2-11);}.cls-14{fill:url(#New_Gradient_Swatch_copy_2-12);}.cls-15{fill:url(#New_Gradient_Swatch_copy_2-13);}</style><linearGradient id="New_Gradient_Swatch_copy" x1="307.53" y1="408.52" x2="323.13" y2="392.92" gradientUnits="userSpaceOnUse"><stop offset="0" stop-color="#00aeef"/><stop offset="1" stop-color="#00bdf2"/></linearGradient><linearGradient id="New_Gradient_Swatch_copy_2" x1="263.86" y1="410.9" x2="320.52" y2="410.9" gradientUnits="userSpaceOnUse"><stop offset="0" stop-color="#d0e8f8"/><stop offset="1" stop-color="#e1eef9"/></linearGradient><linearGradient id="New_Gradient_Swatch_copy_2-2" x1="11.14" y1="55.26" x2="15.14" y2="55.26" xlink:href="#New_Gradient_Swatch_copy_2"/><linearGradient id="New_Gradient_Swatch_copy_2-3" x1="21.14" y1="55.26" x2="25.14" y2="55.26" xlink:href="#New_Gradient_Swatch_copy_2"/><linearGradient id="New_Gradient_Swatch_copy_2-4" x1="31.14" y1="55.26" x2="35.14" y2="55.26" xlink:href="#New_Gradient_Swatch_copy_2"/><linearGradient id="New_Gradient_Swatch_copy_2-5" x1="41.14" y1="55.26" x2="45.14" y2="55.26" xlink:href="#New_Gradient_Swatch_copy_2"/><linearGradient id="New_Gradient_Swatch_copy_2-6" x1="11.14" y1="71.54" x2="15.14" y2="71.54" xlink:href="#New_Gradient_Swatch_copy_2"/><linearGradient id="New_Gradient_Swatch_copy_2-7" x1="21.14" y1="71.54" x2="25.14" y2="71.54" xlink:href="#New_Gradient_Swatch_copy_2"/><linearGradient id="New_Gradient_Swatch_copy_2-8" x1="31.14" y1="71.54" x2="35.14" y2="71.54" xlink:href="#New_Gradient_Swatch_copy_2"/><linearGradient id="New_Gradient_Swatch_copy_2-9" x1="41.14" y1="71.54" x2="45.14" y2="71.54" xlink:href="#New_Gradient_Swatch_copy_2"/><linearGradient id="New_Gradient_Swatch_copy_2-10" x1="6.14" y1="63.54" x2="10.14" y2="63.54" xlink:href="#New_Gradient_Swatch_copy_2"/><linearGradient id="New_Gradient_Swatch_copy_2-11" x1="16.14" y1="63.54" x2="20.14" y2="63.54" xlink:href="#New_Gradient_Swatch_copy_2"/><linearGradient id="New_Gradient_Swatch_copy_2-12" x1="26.14" y1="63.54" x2="30.14" y2="63.54" xlink:href="#New_Gradient_Swatch_copy_2"/><linearGradient id="New_Gradient_Swatch_copy_2-13" x1="36.14" y1="63.54" x2="40.14" y2="63.54" xlink:href="#New_Gradient_Swatch_copy_2"/></defs><g id="Snow_Night" data-name="Snow Night"><path class="cls-1" d="M317.86,412.8a14.6,14.6,0,0,1-4-28.63.77.77,0,0,1,.95.94,13.24,13.24,0,0,0-.52,3.61,13.1,13.1,0,0,0,13.08,13.08,12.86,12.86,0,0,0,3.61-.52.77.77,0,0,1,.95,1A14.66,14.66,0,0,1,317.86,412.8Z" transform="translate(-263.86 -384.14)"/><path class="cls-2" d="M309.86,429.12a10.67,10.67,0,0,0,0-21.33h-.11a17,17,0,0,0-32.44-5.06h-.26a13.2,13.2,0,0,0,0,26.4" transform="translate(-263.86 -384.14)"/><path class="cls-3" d="M324.08,429.12a6.7,6.7,0,0,0,0-13.4H324a10.69,10.69,0,0,0-20.37-3.19h-.16a8.29,8.29,0,0,0,0,16.58" transform="translate(-263.86 -384.14)"/><circle class="cls-4" cx="13.14" cy="55.26" r="2"/><circle class="cls-5" cx="23.14" cy="55.26" r="2"/><circle class="cls-6" cx="33.14" cy="55.26" r="2"/><circle class="cls-7" cx="43.14" cy="55.26" r="2"/><circle class="cls-8" cx="13.14" cy="71.54" r="2"/><circle class="cls-9" cx="23.14" cy="71.54" r="2"/><circle class="cls-10" cx="33.14" cy="71.54" r="2"/><circle class="cls-11" cx="43.14" cy="71.54" r="2"/><circle class="cls-12" cx="8.14" cy="63.54" r="2"/><circle class="cls-13" cx="18.14" cy="63.54" r="2"/><circle class="cls-14" cx="28.14" cy="63.54" r="2"/><circle class="cls-15" cx="38.14" cy="63.54" r="2"/></g></svg>