<svg id="Layer_1" data-name="Layer 1" xmlns="http://www.w3.org/2000/svg" xmlns:xlink="http://www.w3.org/1999/xlink" viewBox="0 0 67.49 69.03"><defs><style>.cls-1{fill:url(#New_Gradient_Swatch_copy);}.cls-2{fill:#fff;}.cls-3{fill:url(#New_Gradient_Swatch_copy_2);}.cls-4{fill:url(#New_Gradient_Swatch_copy-2);}.cls-5{fill:url(#New_Gradient_Swatch_copy-3);}.cls-6{fill:url(#New_Gradient_Swatch_copy-4);}.cls-7{fill:url(#New_Gradient_Swatch_copy-5);}.cls-8{fill:url(#New_Gradient_Swatch_copy-6);}.cls-9{fill:url(#New_Gradient_Swatch_copy-7);}</style><linearGradient id="New_Gradient_Swatch_copy" x1="307.34" y1="346.39" x2="322.94" y2="330.79" gradientUnits="userSpaceOnUse"><stop offset="0" stop-color="#00aeef"/><stop offset="1" stop-color="#00bdf2"/></linearGradient><linearGradient id="New_Gradient_Swatch_copy_2" x1="302.98" y1="370.07" x2="323.3" y2="349.74" gradientUnits="userSpaceOnUse"><stop offset="0" stop-color="#d0e8f8"/><stop offset="1" stop-color="#e1eef9"/></linearGradient><linearGradient id="New_Gradient_Swatch_copy-2" x1="271.88" y1="379.36" x2="278.76" y2="379.36" xlink:href="#New_Gradient_Swatch_copy"/><linearGradient id="New_Gradient_Swatch_copy-3" x1="287.99" y1="379.36" x2="294.88" y2="379.36" xlink:href="#New_Gradient_Swatch_copy"/><linearGradient id="New_Gradient_Swatch_copy-4" x1="304.1" y1="379.36" x2="310.99" y2="379.36" xlink:href="#New_Gradient_Swatch_copy"/><linearGradient id="New_Gradient_Swatch_copy-5" x1="276.88" y1="386.54" x2="283.76" y2="386.54" xlink:href="#New_Gradient_Swatch_copy"/><linearGradient id="New_Gradient_Swatch_copy-6" x1="293.49" y1="386.54" x2="300.38" y2="386.54" xlink:href="#New_Gradient_Swatch_copy"/><linearGradient id="New_Gradient_Swatch_copy-7" x1="310.1" y1="386.54" x2="316.99" y2="386.54" xlink:href="#New_Gradient_Swatch_copy"/></defs><path class="cls-1" d="M317.66,350.67a14.6,14.6,0,0,1-4-28.63.77.77,0,0,1,.75.19.75.75,0,0,1,.19.75,13.22,13.22,0,0,0-.51,3.61,13.09,13.09,0,0,0,13.07,13.08,12.81,12.81,0,0,0,3.61-.52.79.79,0,0,1,.76.2.77.77,0,0,1,.19.75A14.66,14.66,0,0,1,317.66,350.67Z" transform="translate(-264.23 -322.01)"/><g id="Drizzle"><path class="cls-2" d="M310.24,367.51a10.67,10.67,0,0,0,0-21.33h-.11a17,17,0,0,0-32.45-5.07h-.25a13.2,13.2,0,0,0,0,26.4" transform="translate(-264.23 -322.01)"/><path class="cls-3" d="M324.45,367.51a6.7,6.7,0,1,0,0-13.39h-.07A10.69,10.69,0,0,0,304,350.94h-.16a8.29,8.29,0,0,0,0,16.57" transform="translate(-264.23 -322.01)"/><path class="cls-4" d="M273.87,383.86a2,2,0,0,1-1.73-3l2.89-5a2,2,0,0,1,3.47,2l-2.89,5A2,2,0,0,1,273.87,383.86Z" transform="translate(-264.23 -322.01)"/><path class="cls-5" d="M290,383.86a2,2,0,0,1-1.73-3l2.88-5a2,2,0,0,1,3.47,2l-2.89,5A2,2,0,0,1,290,383.86Z" transform="translate(-264.23 -322.01)"/><path class="cls-6" d="M306.1,383.86a2,2,0,0,1-1-.27,2,2,0,0,1-.73-2.73l2.88-5a2,2,0,0,1,3.47,2l-2.89,5A2,2,0,0,1,306.1,383.86Z" transform="translate(-264.23 -322.01)"/><path class="cls-7" d="M278.87,391a2,2,0,0,1-1.73-3l2.89-5a2,2,0,0,1,3.47,2l-2.89,5A2,2,0,0,1,278.87,391Z" transform="translate(-264.23 -322.01)"/><path class="cls-8" d="M295.49,391a2,2,0,0,1-1.73-3l2.88-5a2,2,0,0,1,3.47,2l-2.89,5A2,2,0,0,1,295.49,391Z" transform="translate(-264.23 -322.01)"/><path class="cls-9" d="M312.1,391a2,2,0,0,1-1-.27,2,2,0,0,1-.73-2.73l2.88-5a2,2,0,0,1,3.47,2l-2.89,5A2,2,0,0,1,312.1,391Z" transform="translate(-264.23 -322.01)"/></g></svg>