<svg id="Layer_1" data-name="Layer 1" xmlns="http://www.w3.org/2000/svg" xmlns:xlink="http://www.w3.org/1999/xlink" viewBox="0 0 66.92 65"><defs><style>.cls-1{fill:url(#New_Gradient_Swatch_copy_2);}.cls-2{fill:url(#New_Gradient_Swatch_copy_2-2);}.cls-3{fill:url(#New_Gradient_Swatch_copy_2-3);}.cls-4{fill:url(#New_Gradient_Swatch_copy_2-4);}.cls-5{fill:url(#New_Gradient_Swatch_copy_2-5);}.cls-6{fill:url(#New_Gradient_Swatch_copy_2-6);}.cls-7{fill:url(#New_Gradient_Swatch_copy_2-7);}.cls-8{fill:url(#New_Gradient_Swatch_copy_2-8);}.cls-9{fill:url(#New_Gradient_Swatch_copy_2-9);}.cls-10{fill:url(#New_Gradient_Swatch_copy_2-10);}.cls-11{fill:url(#New_Gradient_Swatch_copy_2-11);}.cls-12{fill:url(#New_Gradient_Swatch_copy_2-12);}.cls-13{fill:#fff;}.cls-14{fill:url(#New_Gradient_Swatch_copy_2-13);}</style><linearGradient id="New_Gradient_Swatch_copy_2" x1="11.14" y1="46.72" x2="15.14" y2="46.72" gradientUnits="userSpaceOnUse"><stop offset="0" stop-color="#d0e8f8"/><stop offset="1" stop-color="#e1eef9"/></linearGradient><linearGradient id="New_Gradient_Swatch_copy_2-2" x1="21.14" y1="46.72" x2="25.14" y2="46.72" xlink:href="#New_Gradient_Swatch_copy_2"/><linearGradient id="New_Gradient_Swatch_copy_2-3" x1="31.14" y1="46.72" x2="35.14" y2="46.72" xlink:href="#New_Gradient_Swatch_copy_2"/><linearGradient id="New_Gradient_Swatch_copy_2-4" x1="41.14" y1="46.72" x2="45.14" y2="46.72" xlink:href="#New_Gradient_Swatch_copy_2"/><linearGradient id="New_Gradient_Swatch_copy_2-5" x1="11.14" y1="63" x2="15.14" y2="63" xlink:href="#New_Gradient_Swatch_copy_2"/><linearGradient id="New_Gradient_Swatch_copy_2-6" x1="21.14" y1="63" x2="25.14" y2="63" xlink:href="#New_Gradient_Swatch_copy_2"/><linearGradient id="New_Gradient_Swatch_copy_2-7" x1="31.14" y1="63" x2="35.14" y2="63" xlink:href="#New_Gradient_Swatch_copy_2"/><linearGradient id="New_Gradient_Swatch_copy_2-8" x1="41.14" y1="63" x2="45.14" y2="63" xlink:href="#New_Gradient_Swatch_copy_2"/><linearGradient id="New_Gradient_Swatch_copy_2-9" x1="6.14" y1="55" x2="10.14" y2="55" xlink:href="#New_Gradient_Swatch_copy_2"/><linearGradient id="New_Gradient_Swatch_copy_2-10" x1="16.14" y1="55" x2="20.14" y2="55" xlink:href="#New_Gradient_Swatch_copy_2"/><linearGradient id="New_Gradient_Swatch_copy_2-11" x1="26.14" y1="55" x2="30.14" y2="55" xlink:href="#New_Gradient_Swatch_copy_2"/><linearGradient id="New_Gradient_Swatch_copy_2-12" x1="36.14" y1="55" x2="40.14" y2="55" xlink:href="#New_Gradient_Swatch_copy_2"/><linearGradient id="New_Gradient_Swatch_copy_2-13" x1="264.41" y1="313.7" x2="284.74" y2="293.37" xlink:href="#New_Gradient_Swatch_copy_2"/></defs><g id="Snow"><circle class="cls-1" cx="13.14" cy="46.72" r="2"/><circle class="cls-2" cx="23.14" cy="46.72" r="2"/><circle class="cls-3" cx="33.14" cy="46.72" r="2"/><circle class="cls-4" cx="43.14" cy="46.72" r="2"/><circle class="cls-5" cx="13.14" cy="63" r="2"/><circle class="cls-6" cx="23.14" cy="63" r="2"/><circle class="cls-7" cx="33.14" cy="63" r="2"/><circle class="cls-8" cx="43.14" cy="63" r="2"/><circle class="cls-9" cx="8.14" cy="55" r="2"/><circle class="cls-10" cx="18.14" cy="55" r="2"/><circle class="cls-11" cx="28.14" cy="55" r="2"/><circle class="cls-12" cx="38.14" cy="55" r="2"/><path class="cls-13" d="M271.67,311.14a10.67,10.67,0,0,0,0-21.33h-.11a17,17,0,0,0-32.44-5.07h-.26a13.2,13.2,0,0,0,0,26.4" transform="translate(-225.67 -274.7)"/><path class="cls-14" d="M285.89,311.14a6.7,6.7,0,0,0,0-13.39h-.07a10.69,10.69,0,0,0-20.37-3.18h-.16a8.29,8.29,0,0,0,0,16.58" transform="translate(-225.67 -274.7)"/></g></svg>