<svg id="Layer_1" data-name="Layer 1" xmlns="http://www.w3.org/2000/svg" xmlns:xlink="http://www.w3.org/1999/xlink" viewBox="0 0 66.92 54.74"><defs><style>.cls-1{fill:#fff;}.cls-2{fill:url(#New_Gradient_Swatch_copy_2);}.cls-3{fill:url(#New_Gradient_Swatch_copy);}.cls-4{fill:url(#New_Gradient_Swatch_copy-2);}.cls-5{fill:url(#New_Gradient_Swatch_copy-3);}.cls-6{fill:url(#New_Gradient_Swatch_copy-4);}</style><linearGradient id="New_Gradient_Swatch_copy_2" x1="303.2" y1="359.79" x2="323.52" y2="339.46" gradientUnits="userSpaceOnUse"><stop offset="0" stop-color="#d0e8f8"/><stop offset="1" stop-color="#e1eef9"/></linearGradient><linearGradient id="New_Gradient_Swatch_copy" x1="273.58" y1="366.03" x2="286.58" y2="366.03" gradientUnits="userSpaceOnUse"><stop offset="0" stop-color="#00aeef"/><stop offset="1" stop-color="#00bdf2"/></linearGradient><linearGradient id="New_Gradient_Swatch_copy-2" x1="290.08" y1="366.03" x2="308.08" y2="366.03" xlink:href="#New_Gradient_Swatch_copy"/><linearGradient id="New_Gradient_Swatch_copy-3" x1="273.58" y1="374.03" x2="296.58" y2="374.03" xlink:href="#New_Gradient_Swatch_copy"/><linearGradient id="New_Gradient_Swatch_copy-4" x1="300.08" y1="374.03" x2="318.08" y2="374.03" xlink:href="#New_Gradient_Swatch_copy"/></defs><g id="Fog"><path class="cls-1" d="M310.45,357.23a10.67,10.67,0,1,0,0-21.33h-.11a17,17,0,0,0-32.44-5.07h-.25a13.2,13.2,0,1,0,0,26.4" transform="translate(-264.45 -320.79)"/><path class="cls-2" d="M324.67,357.23a6.7,6.7,0,1,0,0-13.39h-.07a10.69,10.69,0,0,0-20.37-3.18h-.16a8.29,8.29,0,0,0,0,16.58" transform="translate(-264.45 -320.79)"/><path class="cls-3" d="M285.08,367.53h-10a1.5,1.5,0,1,1,0-3h10a1.5,1.5,0,0,1,0,3Z" transform="translate(-264.45 -320.79)"/><path class="cls-4" d="M306.58,367.53h-15a1.5,1.5,0,1,1,0-3h15a1.5,1.5,0,0,1,0,3Z" transform="translate(-264.45 -320.79)"/><path class="cls-5" d="M295.08,375.53h-20a1.5,1.5,0,1,1,0-3h20a1.5,1.5,0,0,1,0,3Z" transform="translate(-264.45 -320.79)"/><path class="cls-6" d="M316.58,375.53h-15a1.5,1.5,0,1,1,0-3h15a1.5,1.5,0,0,1,0,3Z" transform="translate(-264.45 -320.79)"/></g></svg>