<svg id="Layer_1" data-name="Layer 1" xmlns="http://www.w3.org/2000/svg" xmlns:xlink="http://www.w3.org/1999/xlink" viewBox="0 0 68.06 61.84"><defs><style>.cls-1{fill:url(#New_Gradient_Swatch_copy);}.cls-2{fill:url(#New_Gradient_Swatch_copy_2);}.cls-3{fill:#fff;}.cls-4{fill:url(#New_Gradient_Swatch_copy-2);}.cls-5{fill:url(#New_Gradient_Swatch_copy-3);}.cls-6{fill:url(#New_Gradient_Swatch_copy-4);}.cls-7{fill:url(#New_Gradient_Swatch_copy-5);}</style><linearGradient id="New_Gradient_Swatch_copy" x1="307.53" y1="341.64" x2="323.13" y2="326.04" gradientUnits="userSpaceOnUse"><stop offset="0" stop-color="#00aeef"/><stop offset="1" stop-color="#00bdf2"/></linearGradient><linearGradient id="New_Gradient_Swatch_copy_2" x1="263.86" y1="342.59" x2="320.52" y2="342.59" gradientUnits="userSpaceOnUse"><stop offset="0" stop-color="#d0e8f8"/><stop offset="1" stop-color="#e1eef9"/></linearGradient><linearGradient id="New_Gradient_Swatch_copy-2" x1="272.98" y1="369.6" x2="285.98" y2="369.6" xlink:href="#New_Gradient_Swatch_copy"/><linearGradient id="New_Gradient_Swatch_copy-3" x1="289.48" y1="369.6" x2="307.48" y2="369.6" xlink:href="#New_Gradient_Swatch_copy"/><linearGradient id="New_Gradient_Swatch_copy-4" x1="272.98" y1="377.6" x2="295.98" y2="377.6" xlink:href="#New_Gradient_Swatch_copy"/><linearGradient id="New_Gradient_Swatch_copy-5" x1="299.48" y1="377.6" x2="317.48" y2="377.6" xlink:href="#New_Gradient_Swatch_copy"/></defs><g id="Fog_Night" data-name="Fog Night"><path class="cls-1" d="M317.86,345.93a14.6,14.6,0,0,1-4-28.64.77.77,0,0,1,.95.95,13.07,13.07,0,0,0,16.17,16.17.75.75,0,0,1,.75.19.78.78,0,0,1,.2.75A14.67,14.67,0,0,1,317.86,345.93Z" transform="translate(-263.86 -317.26)"/><path class="cls-2" d="M309.86,360.81a10.67,10.67,0,0,0,0-21.33h-.11a17,17,0,0,0-32.44-5.06h-.26a13.2,13.2,0,0,0,0,26.4" transform="translate(-263.86 -317.26)"/><path class="cls-3" d="M324.08,360.81a6.7,6.7,0,0,0,0-13.4H324a10.69,10.69,0,0,0-20.37-3.19h-.16a8.29,8.29,0,1,0,0,16.58" transform="translate(-263.86 -317.26)"/><path class="cls-4" d="M284.48,371.1h-10a1.5,1.5,0,0,1,0-3h10a1.5,1.5,0,0,1,0,3Z" transform="translate(-263.86 -317.26)"/><path class="cls-5" d="M306,371.1H291a1.5,1.5,0,0,1,0-3h15a1.5,1.5,0,0,1,0,3Z" transform="translate(-263.86 -317.26)"/><path class="cls-6" d="M294.48,379.1h-20a1.5,1.5,0,0,1,0-3h20a1.5,1.5,0,0,1,0,3Z" transform="translate(-263.86 -317.26)"/><path class="cls-7" d="M316,379.1H301a1.5,1.5,0,0,1,0-3h15a1.5,1.5,0,0,1,0,3Z" transform="translate(-263.86 -317.26)"/></g></svg>