<svg id="Layer_1" data-name="Layer 1" xmlns="http://www.w3.org/2000/svg" xmlns:xlink="http://www.w3.org/1999/xlink" viewBox="0 0 45.51 53.02"><defs><style>.cls-1{fill:url(#New_Gradient_Swatch_copy);}.cls-2{fill:url(#New_Gradient_Swatch_1);}.cls-3{fill:url(#New_Gradient_Swatch_1-2);}</style><linearGradient id="New_Gradient_Swatch_copy" x1="59.01" y1="83.33" x2="83.77" y2="58.56" gradientUnits="userSpaceOnUse"><stop offset="0" stop-color="#00aeef"/><stop offset="1" stop-color="#00bdf2"/></linearGradient><linearGradient id="New_Gradient_Swatch_1" x1="86.74" y1="57.54" x2="92.54" y2="51.74" gradientUnits="userSpaceOnUse"><stop offset="0" stop-color="#fdb728"/><stop offset="1" stop-color="#ffcd23"/></linearGradient><linearGradient id="New_Gradient_Swatch_1-2" x1="79.98" y1="42.1" x2="83.37" y2="38.71" xlink:href="#New_Gradient_Swatch_1"/></defs><g id="Clear_Night" data-name="Clear Night"><path class="cls-1" d="M75.4,90.13A23.19,23.19,0,0,1,69,44.66a1.22,1.22,0,0,1,1.51,1.51,20.51,20.51,0,0,0-.82,5.73A20.72,20.72,0,0,0,96.17,71.84a1.2,1.2,0,0,1,1.19.31,1.21,1.21,0,0,1,.31,1.19A23.29,23.29,0,0,1,75.4,90.13Z" transform="translate(-52.21 -37.11)"/><path class="cls-2" d="M90.42,59.1c-.43,1.59-1.14,1.59-1.57,0a5.78,5.78,0,0,0-3.67-3.67c-1.59-.43-1.59-1.14,0-1.57a5.8,5.8,0,0,0,3.67-3.68c.43-1.58,1.14-1.58,1.57,0a5.83,5.83,0,0,0,3.68,3.68c1.58.43,1.58,1.14,0,1.57A5.82,5.82,0,0,0,90.42,59.1Z" transform="translate(-52.21 -37.11)"/><path class="cls-3" d="M82.13,43c-.25.93-.66.93-.92,0a3.38,3.38,0,0,0-2.14-2.14c-.93-.25-.93-.67,0-.92a3.37,3.37,0,0,0,2.14-2.15c.26-.93.67-.93.92,0A3.41,3.41,0,0,0,84.28,40c.93.25.93.67,0,.92A3.41,3.41,0,0,0,82.13,43Z" transform="translate(-52.21 -37.11)"/></g></svg>