<svg id="Layer_1" data-name="Layer 1" xmlns="http://www.w3.org/2000/svg" xmlns:xlink="http://www.w3.org/1999/xlink" viewBox="0 0 66.92 40.91"><defs><style>.cls-1{fill:url(#New_Gradient_Swatch_1);}.cls-2{fill:url(#New_Gradient_Swatch_1-2);}.cls-3{fill:#fff;}.cls-4{fill:url(#New_Gradient_Swatch_copy_2);}</style><linearGradient id="New_Gradient_Swatch_1" x1="18.99" y1="34.92" x2="47.92" y2="5.99" gradientUnits="userSpaceOnUse"><stop offset="0" stop-color="#fdb728"/><stop offset="1" stop-color="#ffcd23"/></linearGradient><linearGradient id="New_Gradient_Swatch_1-2" x1="39.16" y1="22.45" x2="57.49" y2="4.12" xlink:href="#New_Gradient_Swatch_1"/><linearGradient id="New_Gradient_Swatch_copy_2" x1="303.29" y1="379.19" x2="323.61" y2="358.86" gradientUnits="userSpaceOnUse"><stop offset="0" stop-color="#d0e8f8"/><stop offset="1" stop-color="#e1eef9"/></linearGradient></defs><g id="Mostly_Sunny" data-name="Mostly Sunny"><circle class="cls-1" cx="33.46" cy="20.46" r="20.46"/></g><g id="Party_Cloudy" data-name="Party Cloudy"><circle class="cls-2" cx="48.32" cy="13.29" r="12.96"/><path class="cls-3" d="M310.54,376.63a10.67,10.67,0,1,0,0-21.33h-.1A17,17,0,0,0,278,350.24h-.25a13.2,13.2,0,1,0,0,26.4" transform="translate(-264.54 -336.04)"/><path class="cls-4" d="M324.76,376.63a6.7,6.7,0,1,0,0-13.39h-.07a10.69,10.69,0,0,0-20.37-3.18h-.16a8.29,8.29,0,0,0,0,16.58" transform="translate(-264.54 -336.04)"/></g></svg>